# xmcd CD database file
#
# Track frame offsets:
#	150
#	14002
#	24412
#	35198
#	49056
#	62726
#	76537
#	89972
#	101420
#	114046
#	126568
#	139109
#	152215
#	164312
#	174694
#	186401
#	198253
#	208635
#	221645
#	231136
#	243756
#	253225
#	265594
#	275308
#
# Disc length: 3834 seconds
#
# Revision: 0
# Processed by: cddbd v1.5.2PL0 Copyright (c) Steve Scherf et al.
# Submitted via: CDex 1.51
#
DISCID=590ef818
DTITLE=Buddy Guy, Magic Sam, Otis Rush - Snakebite [CD1)
DYEAR=2009
DGENRE=Blues
TTITLE0=I Can't Quit You Baby
TTITLE1=Sit Down Baby
TTITLE2=Violent Love
TTITLE3=My Love Will Never Die
TTITLE4=Groaning The Blues
TTITLE5=If You Were Mine
TTITLE6=Love That Woman
TTITLE7=Jump Sister Bessie
TTITLE8=Three Times A Fool
TTITLE9=She's A Good 'Un
TTITLE10=It Takes Time
TTITLE11=Checking On My Baby
TTITLE12=Double Trouble
TTITLE13=Keep On Loving Me Baby
TTITLE14=All Your Love (I Miss Loving)
TTITLE15=My Baby Is A Good 'Un
TTITLE16=Little Red Rooster
TTITLE17=All  Your Love
TTITLE18=Love Me With a Feeling
TTITLE19=Everything Gonna Be Alright
TTITLE20=Look Whatcha Done
TTITLE21=All Night Long
TTITLE22=All My Whole Life
TTITLE23=Easy Baby
EXTD=YEAR: 2009
EXTT0=
EXTT1=
EXTT2=
EXTT3=
EXTT4=
EXTT5=
EXTT6=
EXTT7=
EXTT8=
EXTT9=
EXTT10=
EXTT11=
EXTT12=
EXTT13=
EXTT14=
EXTT15=
EXTT16=
EXTT17=
EXTT18=
EXTT19=
EXTT20=
EXTT21=
EXTT22=
EXTT23=
PLAYORDER=
